<svg width="145" height="200" viewBox="0 0 145 200" fill="none" xmlns="http://www.w3.org/2000/svg">
<path d="M87.1875 125.604C91.1458 126.594 94.8177 128.219 98.2083 130.479C101.609 132.745 104.547 135.51 107.021 138.771C109.505 142.021 111.448 145.661 112.854 149.688C114.271 153.714 114.979 157.922 114.979 162.313C114.979 158.49 114.234 154.958 112.75 151.708C111.26 148.458 109.25 145.599 106.708 143.125C104.167 140.641 101.26 138.688 98 137.271C94.75 135.854 91.3594 135.146 87.8333 135.146C83.5833 135.146 79.7552 136.104 76.3542 138.021C72.9635 139.927 69.75 142.292 66.7083 145.125C63.6771 147.958 60.7135 151.031 57.8125 154.354C54.9063 157.672 51.901 160.75 48.7917 163.583C45.6771 166.417 42.3542 168.781 38.8125 170.688C35.2813 172.604 31.3958 173.563 27.1458 173.563C23.3229 173.563 19.7917 172.818 16.5417 171.333C13.2917 169.844 10.4219 167.792 7.9375 165.167C5.46354 162.552 3.52083 159.51 2.10417 156.042C0.697916 152.583 0 148.875 0 144.917C0 138.557 1.76042 132.906 5.29167 127.958C8.83333 123 13.3594 119.599 18.875 117.75C16.8854 118.891 15.3229 120.698 14.1875 123.167C13.0625 125.641 12.5 128.078 12.5 130.479C12.5 134.302 13.8802 137.594 16.6458 140.354C19.4062 143.12 22.6979 144.5 26.5208 144.5C30.4792 144.5 34.4688 143.552 38.5 141.646C42.526 139.729 46.6667 137.563 50.9167 135.146C44.9688 134.302 39.4479 132.536 34.3542 129.854C29.2708 127.161 24.8542 123.766 21.1042 119.667C17.3542 115.573 14.4167 110.906 12.2917 105.667C10.1771 100.432 9.125 94.8438 9.125 88.8958C9.125 82.6771 10.3229 76.8073 12.7292 71.2917C15.1302 65.7813 18.3802 60.9063 22.4792 56.6667C26.5729 52.4167 31.4167 49.0208 37 46.4792C42.5938 43.9271 48.5729 42.5104 54.9375 42.2292C50.4063 43.3542 46.9792 47.9167 44.6458 55.9167C42.3125 63.9063 41.1458 74.8958 41.1458 88.8958C41.1458 101.344 42.0938 111.427 44 119.146C45.9167 126.854 48.7135 131.911 52.3958 134.313C55.0885 132.76 57.7396 131.307 60.3542 129.958C62.9635 128.615 65.6875 127.516 68.5208 126.667C70.3542 122.708 71.6927 117.552 72.5417 111.188C73.401 104.813 73.8333 97.3854 73.8333 88.8958C73.8333 74.8958 72.6667 63.9063 70.3333 55.9167C68 47.9167 64.5677 43.3542 60.0417 42.2292C66.401 42.5104 72.375 43.9271 77.9583 46.4792C83.5417 49.0208 88.3802 52.4167 92.4792 56.6667C96.5885 60.9063 99.8438 65.7813 102.25 71.2917C104.651 76.8073 105.854 82.6771 105.854 88.8958C105.854 96.3958 104.193 103.333 100.875 109.708C97.5521 116.073 92.9896 121.37 87.1875 125.604ZM76.375 187.563C75.526 188.547 74.75 189.604 74.0417 190.729C73.3333 191.865 72.9792 193.005 72.9792 194.146C72.9792 195.839 73.5417 197.214 74.6667 198.271C75.8021 199.339 77.3594 199.875 79.3333 199.875C75.2344 199.875 71.3438 199.234 67.6667 197.958C64 196.677 60.7135 194.943 57.8125 192.75C54.9063 190.568 52.6094 188.026 50.9167 185.125C49.2188 182.219 48.375 179.146 48.375 175.896C48.375 171.365 50 167.469 53.25 164.208C56.5 160.958 60.3854 159.333 64.9167 159.333C67.1771 159.333 69.2969 159.755 71.2708 160.604C73.2552 161.464 74.9896 162.63 76.4792 164.104C77.9635 165.589 79.1302 167.359 79.9792 169.417C80.8229 171.469 81.25 173.63 81.25 175.896C81.25 180.422 79.625 184.313 76.375 187.563ZM79.5625 46.0417C75.1719 42.7917 71.1354 38.6615 67.4583 33.6458C63.776 28.6198 61.9375 22.9271 61.9375 16.5625C61.9375 12.0365 63.5625 8.14583 66.8125 4.89583C70.0729 1.63542 73.9688 0 78.5 0C80.7604 0 82.8802 0.427084 84.8542 1.27083C86.8385 2.11979 88.5729 3.28646 90.0625 4.77083C91.5469 6.26042 92.7135 8.03125 93.5625 10.0833C94.4063 12.1406 94.8333 14.3021 94.8333 16.5625C94.8333 20.3854 93.8021 23.4948 91.75 25.8958C89.7083 28.3021 87.0521 30.349 83.7917 32.0417C81.3854 33.3229 79.6146 34.4896 78.4792 35.5417C77.3542 36.599 76.7917 38.1198 76.7917 40.1042C76.7917 41.9375 77.7135 43.9167 79.5625 46.0417Z" fill="white"/>
<mask id="mask0_1_40" style="mask-type:luminance" maskUnits="userSpaceOnUse" x="109" y="106" width="36" height="36">
<path d="M109.12 106.302H144.12V141.302H109.12V106.302Z" fill="white"/>
</mask>
<g mask="url(#mask0_1_40)">
<path d="M143.802 123.646C130.797 126.037 128.854 127.979 126.464 140.985C124.068 127.979 122.125 126.037 109.12 123.646C122.125 121.25 124.068 119.308 126.464 106.302C128.854 119.308 130.797 121.25 143.802 123.646Z" fill="white"/>
</g>
</svg>
