<svg width="293" height="156" viewBox="0 0 293 156" fill="none" xmlns="http://www.w3.org/2000/svg">
<path d="M68.6591 98.1834C71.7268 98.949 74.581 100.215 77.2216 101.975C79.857 103.725 82.1383 105.866 84.055 108.392C85.982 110.923 87.4977 113.746 88.5966 116.871C89.6904 120.006 90.2425 123.277 90.2425 126.683C90.2425 123.725 89.6643 120.98 88.5133 118.454C87.357 115.928 85.7893 113.704 83.805 111.788C81.831 109.86 79.581 108.345 77.055 107.246C74.5237 106.152 71.8883 105.6 69.1383 105.6C65.8466 105.6 62.8779 106.345 60.2425 107.829C57.6018 109.303 55.1018 111.142 52.7425 113.35C50.3779 115.548 48.0758 117.933 45.8258 120.517C43.5758 123.1 41.232 125.485 38.805 127.683C36.3883 129.876 33.805 131.715 31.055 133.204C28.3154 134.689 25.305 135.433 22.0133 135.433C19.0393 135.433 16.2893 134.85 13.7633 133.683C11.232 132.527 9.00287 130.939 7.07579 128.913C5.15912 126.881 3.6487 124.522 2.55495 121.829C1.45599 119.131 0.909119 116.246 0.909119 113.163C0.909119 108.22 2.2737 103.829 5.01329 99.9959C7.76329 96.1521 11.2841 93.5115 15.5758 92.0792C14.0341 92.9542 12.8258 94.3605 11.9508 96.2875C11.0758 98.2042 10.6383 100.095 10.6383 101.954C10.6383 104.928 11.706 107.491 13.8466 109.642C15.982 111.782 18.5393 112.85 21.5133 112.85C24.581 112.85 27.68 112.11 30.805 110.621C33.9404 109.136 37.1643 107.465 40.4716 105.6C35.8466 104.933 31.555 103.558 27.5966 101.475C23.6487 99.3813 20.2216 96.7407 17.305 93.5584C14.3883 90.3813 12.1018 86.7563 10.4508 82.6834C8.81016 78.6157 7.99245 74.2771 7.99245 69.6625C7.99245 64.8292 8.91953 60.2667 10.7841 55.975C12.6591 51.6834 15.1852 47.8917 18.3675 44.6C21.5602 41.3084 25.3258 38.6782 29.6591 36.7042C34.0029 34.7198 38.6487 33.6157 43.5966 33.3917C40.081 34.2667 37.4143 37.8084 35.5966 44.0167C33.7893 50.225 32.8883 58.7771 32.8883 69.6625C32.8883 79.3292 33.6227 87.1573 35.0966 93.1417C36.581 99.1313 38.7529 103.058 41.6175 104.933C43.7008 103.725 45.7529 102.6 47.7841 101.558C49.8258 100.517 51.9404 99.6625 54.1383 98.9959C55.5654 95.9282 56.607 91.923 57.2633 86.975C57.93 82.0167 58.2633 76.2459 58.2633 69.6625C58.2633 58.7771 57.3518 50.225 55.5341 44.0167C53.7268 37.8084 51.0654 34.2667 47.555 33.3917C52.4977 33.6157 57.1383 34.7198 61.4716 36.7042C65.8154 38.6782 69.581 41.3084 72.7633 44.6C75.956 47.8917 78.482 51.6834 80.3466 55.975C82.2216 60.2667 83.1591 64.8292 83.1591 69.6625C83.1591 75.4855 81.8675 80.8657 79.2841 85.8084C76.7008 90.7563 73.1591 94.8813 68.6591 98.1834ZM60.2425 146.308C59.5862 147.069 58.982 147.892 58.43 148.767C57.8883 149.652 57.6175 150.538 57.6175 151.413C57.6175 152.73 58.055 153.798 58.93 154.621C59.805 155.454 61.0133 155.871 62.555 155.871C59.357 155.871 56.331 155.371 53.4716 154.371C50.6227 153.381 48.0758 152.038 45.8258 150.329C43.5758 148.631 41.7893 146.663 40.4716 144.413C39.1487 142.163 38.4925 139.772 38.4925 137.246C38.4925 133.715 39.7529 130.689 42.2841 128.163C44.8102 125.647 47.831 124.392 51.3466 124.392C53.0966 124.392 54.7425 124.715 56.2841 125.371C57.8258 126.022 59.1695 126.923 60.3258 128.079C61.4768 129.246 62.3779 130.621 63.0341 132.204C63.7008 133.798 64.0341 135.48 64.0341 137.246C64.0341 140.756 62.7685 143.777 60.2425 146.308ZM62.7216 36.3709C59.3154 33.8448 56.1852 30.6313 53.3258 26.725C50.4612 22.824 49.0341 18.4021 49.0341 13.4542C49.0341 9.94379 50.2945 6.92295 52.8258 4.3917C55.3518 1.86566 58.3727 0.600037 61.8883 0.600037C63.6487 0.600037 65.2945 0.93337 66.8258 1.60004C68.3675 2.25629 69.7112 3.15733 70.8675 4.30837C72.0341 5.46462 72.9404 6.83962 73.5966 8.43337C74.2477 10.0167 74.5758 11.6938 74.5758 13.4542C74.5758 16.4125 73.7737 18.8292 72.18 20.7042C70.5966 22.5688 68.5393 24.1573 66.0133 25.475C64.1487 26.475 62.7737 27.3865 61.8883 28.2042C61.0133 29.0271 60.5758 30.2042 60.5758 31.7459C60.5758 33.1782 61.2893 34.7198 62.7216 36.3709Z" fill="white"/>
<path d="M118.592 106.913C118.592 108.886 119.248 110.808 120.571 112.683C121.889 114.548 123.478 115.642 125.342 115.975H87.113C88.9724 115.642 90.5609 114.548 91.8839 112.683C93.2016 110.808 93.863 108.886 93.863 106.913V13.7875C93.863 11.8032 93.2016 9.88129 91.8839 8.0167C90.5609 6.1417 88.9724 5.03754 87.113 4.7042L115.301 0.600037H115.78C116.665 0.600037 117.353 0.881287 117.842 1.43337C118.342 1.97504 118.592 2.68337 118.592 3.55837V106.913Z" fill="white"/>
<path d="M160.952 33.3917C166.004 33.6157 170.728 34.85 175.118 37.1C179.519 39.35 183.368 42.3448 186.66 46.0792C189.962 49.8188 192.545 54.1834 194.41 59.1834C196.285 64.1834 197.223 69.4907 197.223 75.1C197.223 80.699 196.285 85.9959 194.41 90.9959C192.545 95.9959 189.962 100.366 186.66 104.1C183.368 107.84 179.519 110.84 175.118 113.1C170.728 115.35 166.004 116.584 160.952 116.808C164.686 116.027 167.514 112.1 169.431 105.017C171.358 97.9334 172.327 87.9646 172.327 75.1C172.327 62.2407 171.358 52.2667 169.431 45.1834C167.514 38.0896 164.686 34.1573 160.952 33.3917ZM158.16 33.3917C154.519 34.1573 151.712 38.0896 149.743 45.1834C147.769 52.2667 146.785 62.2407 146.785 75.1C146.785 87.9646 147.769 97.9334 149.743 105.017C151.712 112.1 154.519 116.027 158.16 116.808C153.103 116.584 148.374 115.35 143.973 113.1C139.582 110.84 135.764 107.84 132.514 104.1C129.275 100.366 126.723 95.9959 124.848 90.9959C122.983 85.9959 122.056 80.699 122.056 75.1C122.056 69.4907 122.983 64.1834 124.848 59.1834C126.723 54.1834 129.275 49.8188 132.514 46.0792C135.764 42.3448 139.582 39.35 143.973 37.1C148.374 34.85 153.103 33.6157 158.16 33.3917Z" fill="white"/>
<path d="M232.816 33.3917C237.868 33.6157 242.592 34.85 246.982 37.1C251.383 39.35 255.232 42.3448 258.524 46.0792C261.826 49.8188 264.409 54.1834 266.274 59.1834C268.149 64.1834 269.086 69.4907 269.086 75.1C269.086 80.699 268.149 85.9959 266.274 90.9959C264.409 95.9959 261.826 100.366 258.524 104.1C255.232 107.84 251.383 110.84 246.982 113.1C242.592 115.35 237.868 116.584 232.816 116.808C236.55 116.027 239.378 112.1 241.295 105.017C243.222 97.9334 244.191 87.9646 244.191 75.1C244.191 62.2407 243.222 52.2667 241.295 45.1834C239.378 38.0896 236.55 34.1573 232.816 33.3917ZM230.024 33.3917C226.383 34.1573 223.576 38.0896 221.607 45.1834C219.633 52.2667 218.649 62.2407 218.649 75.1C218.649 87.9646 219.633 97.9334 221.607 105.017C223.576 112.1 226.383 116.027 230.024 116.808C224.967 116.584 220.238 115.35 215.836 113.1C211.446 110.84 207.628 107.84 204.378 104.1C201.139 100.366 198.586 95.9959 196.711 90.9959C194.847 85.9959 193.92 80.699 193.92 75.1C193.92 69.4907 194.847 64.1834 196.711 59.1834C198.586 54.1834 201.139 49.8188 204.378 46.0792C207.628 42.3448 211.446 39.35 215.836 37.1C220.238 34.85 224.967 33.6157 230.024 33.3917Z" fill="white"/>
<mask id="mask0_1_29" style="mask-type:luminance" maskUnits="userSpaceOnUse" x="257" y="91" width="36" height="36">
<path d="M257.917 91.3802H292.917V126.38H257.917V91.3802Z" fill="white"/>
</mask>
<g mask="url(#mask0_1_29)">
<path d="M292.604 108.724C279.594 111.12 277.656 113.057 275.26 126.068C272.865 113.057 270.922 111.12 257.917 108.724C270.922 106.328 272.865 104.391 275.26 91.3802C277.656 104.391 279.594 106.328 292.604 108.724Z" fill="white"/>
</g>
</svg>
