<svg width="68" height="67" viewBox="0 0 68 67" fill="none" xmlns="http://www.w3.org/2000/svg">
<g clip-path="url(#clip0_1168_2830)">
<path d="M67.292 60.3704H64.1288V66.7176H67.292V60.3704Z" fill="black"/>
<path d="M67.292 22.3287H64.1288V25.4919H67.292V22.3287Z" fill="black"/>
<path d="M64.1285 54.0438H60.9653V60.3702H64.1285V54.0438Z" fill="black"/>
<path d="M64.1285 19.1449H60.9653V22.3289H64.1285V19.1449Z" fill="black"/>
<path d="M60.9654 47.6965H57.7814V54.0437H60.9654V47.6965Z" fill="black"/>
<path d="M64.1285 25.4921H54.6181V28.6761H64.1285V25.4921Z" fill="black"/>
<path d="M60.9655 15.9815H57.7815V19.1447H60.9655V15.9815Z" fill="black"/>
<path d="M54.6185 41.3495V35.0023H51.4553L51.4553 28.6759H48.2712V22.3287H45.108V19.1447H41.924V12.8183L54.6185 12.8183V9.63429H51.4553V6.47108H48.2712V9.63429H41.924V3.30788L45.108 3.30788V0.123871L38.7608 0.123871V19.1447H35.5976V22.3287L32.4136 22.3287L32.4136 28.6759H29.2504L29.2504 35.0023H26.0664V41.3495H22.9032V47.6968H29.2504V50.86H38.7608V47.6968L48.2712 47.6968V44.5336H54.6185V47.6968H57.7817V41.3495H54.6185ZM35.5976 47.6968H32.4136V44.5336H35.5976V47.6968ZM45.108 44.5336L41.924 44.5336V41.3495H38.7608V38.1863H41.924V41.3495L45.108 41.3495V44.5336ZM45.108 31.8391H41.924V25.4919H38.7608V22.3287H41.924V25.4919H45.108V31.8391ZM51.4553 41.3495H48.2712V38.1863H51.4553V41.3495Z" fill="black"/>
<path d="M57.7813 19.1449H54.6181V22.3289H57.7813V19.1449Z" fill="black"/>
<path d="M54.6185 22.3288H51.4553V25.492H54.6185V22.3288Z" fill="black"/>
<path d="M48.2712 3.30774L45.108 3.30774V6.47094H48.2712V3.30774Z" fill="black"/>
<path d="M22.9031 47.6965H19.7399V54.0437H22.9031V47.6965Z" fill="black"/>
<path d="M22.9031 12.8183H19.7399V15.9815H22.9031V12.8183Z" fill="black"/>
<path d="M19.7399 54.0438H16.5559V60.3702H19.7399V54.0438Z" fill="black"/>
<path d="M19.7399 9.63428H16.5559V12.8183H19.7399V9.63428Z" fill="black"/>
<path d="M16.5559 60.3704H13.3927L13.3927 66.7176H16.5559V60.3704Z" fill="black"/>
<path d="M16.5559 50.86H13.3927V54.044H16.5559V50.86Z" fill="black"/>
<path d="M19.7398 15.9815L3.8822 15.9815L3.8822 19.1447L19.7398 19.1447V15.9815Z" fill="black"/>
<path d="M16.5559 6.47107L10.2295 6.47107V9.63427H16.5559V6.47107Z" fill="black"/>
<path d="M13.3927 47.6965H10.2295V50.8597H13.3927V47.6965Z" fill="black"/>
<path d="M10.2294 50.86H7.04541L7.04541 54.044H10.2294V50.86Z" fill="black"/>
<path d="M10.2294 9.63428L3.8822 9.63428L3.8822 12.8183H10.2294V9.63428Z" fill="black"/>
<path d="M7.0454 54.0438H3.8822L3.8822 60.3702H7.0454L7.0454 54.0438Z" fill="black"/>
<path d="M3.88225 60.3704H0.698242L0.698242 66.7176H3.88225L3.88225 60.3704Z" fill="black"/>
<path d="M3.88225 12.8183H0.698242L0.698242 15.9815H3.88225L3.88225 12.8183Z" fill="black"/>
</g>
<defs>
<clipPath id="clip0_1168_2830">
<rect width="66.5937" height="66.5937" fill="white" transform="translate(0.698242 0.124329)"/>
</clipPath>
</defs>
</svg>
