<svg width="292" height="156" viewBox="0 0 292 156" fill="none" xmlns="http://www.w3.org/2000/svg">
<path d="M67.75 97.5833C70.8177 98.349 73.6719 99.6146 76.3125 101.375C78.9479 103.125 81.2292 105.266 83.1458 107.792C85.0729 110.323 86.5885 113.146 87.6875 116.271C88.7813 119.406 89.3333 122.677 89.3333 126.083C89.3333 123.125 88.7552 120.38 87.6042 117.854C86.4479 115.328 84.8802 113.104 82.8958 111.188C80.9219 109.26 78.6719 107.745 76.1458 106.646C73.6146 105.552 70.9792 105 68.2292 105C64.9375 105 61.9688 105.745 59.3333 107.229C56.6927 108.703 54.1927 110.542 51.8333 112.75C49.4688 114.948 47.1667 117.333 44.9167 119.917C42.6667 122.5 40.3229 124.885 37.8958 127.083C35.4792 129.276 32.8958 131.115 30.1458 132.604C27.4063 134.089 24.3958 134.833 21.1042 134.833C18.1302 134.833 15.3802 134.25 12.8542 133.083C10.3229 131.927 8.09375 130.339 6.16667 128.313C4.25 126.281 2.73958 123.922 1.64583 121.229C0.546875 118.531 0 115.646 0 112.563C0 107.62 1.36458 103.229 4.10417 99.3958C6.85417 95.5521 10.375 92.9115 14.6667 91.4792C13.125 92.3542 11.9167 93.7604 11.0417 95.6875C10.1667 97.6042 9.72917 99.4948 9.72917 101.354C9.72917 104.328 10.7969 106.891 12.9375 109.042C15.0729 111.182 17.6302 112.25 20.6042 112.25C23.6719 112.25 26.7708 111.51 29.8958 110.021C33.0313 108.536 36.2552 106.865 39.5625 105C34.9375 104.333 30.6458 102.958 26.6875 100.875C22.7396 98.7813 19.3125 96.1406 16.3958 92.9583C13.4792 89.7813 11.1927 86.1563 9.54167 82.0833C7.90104 78.0156 7.08333 73.6771 7.08333 69.0625C7.08333 64.2292 8.01042 59.6667 9.875 55.375C11.75 51.0833 14.276 47.2917 17.4583 44C20.651 40.7083 24.4167 38.0781 28.75 36.1042C33.0938 34.1198 37.7396 33.0156 42.6875 32.7917C39.1719 33.6667 36.5052 37.2083 34.6875 43.4167C32.8802 49.625 31.9792 58.1771 31.9792 69.0625C31.9792 78.7292 32.7135 86.5573 34.1875 92.5417C35.6719 98.5313 37.8438 102.458 40.7083 104.333C42.7917 103.125 44.8438 102 46.875 100.958C48.9167 99.9167 51.0313 99.0625 53.2292 98.3958C54.6563 95.3281 55.6979 91.3229 56.3542 86.375C57.0208 81.4167 57.3542 75.6458 57.3542 69.0625C57.3542 58.1771 56.4427 49.625 54.625 43.4167C52.8177 37.2083 50.1563 33.6667 46.6458 32.7917C51.5885 33.0156 56.2292 34.1198 60.5625 36.1042C64.9063 38.0781 68.6719 40.7083 71.8542 44C75.0469 47.2917 77.5729 51.0833 79.4375 55.375C81.3125 59.6667 82.25 64.2292 82.25 69.0625C82.25 74.8854 80.9583 80.2656 78.375 85.2083C75.7917 90.1563 72.25 94.2813 67.75 97.5833ZM59.3333 145.708C58.6771 146.469 58.0729 147.292 57.5208 148.167C56.9792 149.052 56.7083 149.938 56.7083 150.813C56.7083 152.13 57.1458 153.198 58.0208 154.021C58.8958 154.854 60.1042 155.271 61.6458 155.271C58.4479 155.271 55.4219 154.771 52.5625 153.771C49.7135 152.781 47.1667 151.438 44.9167 149.729C42.6667 148.031 40.8802 146.063 39.5625 143.813C38.2396 141.563 37.5833 139.172 37.5833 136.646C37.5833 133.115 38.8438 130.089 41.375 127.563C43.901 125.047 46.9219 123.792 50.4375 123.792C52.1875 123.792 53.8333 124.115 55.375 124.771C56.9167 125.422 58.2604 126.323 59.4167 127.479C60.5677 128.646 61.4688 130.021 62.125 131.604C62.7917 133.198 63.125 134.88 63.125 136.646C63.125 140.156 61.8594 143.177 59.3333 145.708ZM61.8125 35.7708C58.4063 33.2448 55.276 30.0313 52.4167 26.125C49.5521 22.224 48.125 17.8021 48.125 12.8542C48.125 9.34375 49.3854 6.32292 51.9167 3.79167C54.4427 1.26563 57.4635 0 60.9792 0C62.7396 0 64.3854 0.333333 65.9167 1C67.4583 1.65625 68.8021 2.55729 69.9583 3.70833C71.125 4.86458 72.0313 6.23958 72.6875 7.83333C73.3385 9.41667 73.6667 11.0937 73.6667 12.8542C73.6667 15.8125 72.8646 18.2292 71.2708 20.1042C69.6875 21.9688 67.6302 23.5573 65.1042 24.875C63.2396 25.875 61.8646 26.7865 60.9792 27.6042C60.1042 28.4271 59.6667 29.6042 59.6667 31.1458C59.6667 32.5781 60.3802 34.1198 61.8125 35.7708Z" fill="black" fill-opacity="0.61"/>
<path d="M117.683 106.313C117.683 108.286 118.339 110.208 119.662 112.083C120.98 113.948 122.569 115.042 124.433 115.375H86.2039C88.0633 115.042 89.6518 113.948 90.9748 112.083C92.2925 110.208 92.9539 108.286 92.9539 106.313V13.1875C92.9539 11.2031 92.2925 9.28125 90.9748 7.41667C89.6518 5.54167 88.0633 4.4375 86.2039 4.10417L114.391 0H114.871C115.756 0 116.444 0.281251 116.933 0.833333C117.433 1.375 117.683 2.08333 117.683 2.95833V106.313Z" fill="black" fill-opacity="0.61"/>
<path d="M160.043 32.7917C165.095 33.0156 169.819 34.25 174.209 36.5C178.61 38.75 182.459 41.7448 185.751 45.4792C189.053 49.2188 191.636 53.5833 193.501 58.5833C195.376 63.5833 196.313 68.8906 196.313 74.5C196.313 80.099 195.376 85.3958 193.501 90.3958C191.636 95.3958 189.053 99.7656 185.751 103.5C182.459 107.24 178.61 110.24 174.209 112.5C169.819 114.75 165.095 115.984 160.043 116.208C163.777 115.427 166.605 111.5 168.522 104.417C170.449 97.3333 171.418 87.3646 171.418 74.5C171.418 61.6406 170.449 51.6667 168.522 44.5833C166.605 37.4896 163.777 33.5573 160.043 32.7917ZM157.251 32.7917C153.61 33.5573 150.803 37.4896 148.834 44.5833C146.86 51.6667 145.876 61.6406 145.876 74.5C145.876 87.3646 146.86 97.3333 148.834 104.417C150.803 111.5 153.61 115.427 157.251 116.208C152.194 115.984 147.464 114.75 143.063 112.5C138.673 110.24 134.855 107.24 131.605 103.5C128.365 99.7656 125.813 95.3958 123.938 90.3958C122.074 85.3958 121.147 80.099 121.147 74.5C121.147 68.8906 122.074 63.5833 123.938 58.5833C125.813 53.5833 128.365 49.2188 131.605 45.4792C134.855 41.7448 138.673 38.75 143.063 36.5C147.464 34.25 152.194 33.0156 157.251 32.7917Z" fill="black" fill-opacity="0.61"/>
<path d="M231.907 32.7917C236.959 33.0156 241.683 34.25 246.073 36.5C250.474 38.75 254.323 41.7448 257.615 45.4792C260.917 49.2188 263.5 53.5833 265.365 58.5833C267.24 63.5833 268.177 68.8906 268.177 74.5C268.177 80.099 267.24 85.3958 265.365 90.3958C263.5 95.3958 260.917 99.7656 257.615 103.5C254.323 107.24 250.474 110.24 246.073 112.5C241.683 114.75 236.959 115.984 231.907 116.208C235.641 115.427 238.469 111.5 240.386 104.417C242.313 97.3333 243.282 87.3646 243.282 74.5C243.282 61.6406 242.313 51.6667 240.386 44.5833C238.469 37.4896 235.641 33.5573 231.907 32.7917ZM229.115 32.7917C225.474 33.5573 222.667 37.4896 220.698 44.5833C218.724 51.6667 217.74 61.6406 217.74 74.5C217.74 87.3646 218.724 97.3333 220.698 104.417C222.667 111.5 225.474 115.427 229.115 116.208C224.058 115.984 219.328 114.75 214.927 112.5C210.537 110.24 206.719 107.24 203.469 103.5C200.229 99.7656 197.677 95.3958 195.802 90.3958C193.938 85.3958 193.011 80.099 193.011 74.5C193.011 68.8906 193.938 63.5833 195.802 58.5833C197.677 53.5833 200.229 49.2188 203.469 45.4792C206.719 41.7448 210.537 38.75 214.927 36.5C219.328 34.25 224.058 33.0156 229.115 32.7917Z" fill="black" fill-opacity="0.61"/>
<mask id="mask0_1_51" style="mask-type:luminance" maskUnits="userSpaceOnUse" x="257" y="90" width="36" height="36">
<path d="M257.008 90.7802H292.008V125.78H257.008V90.7802Z" fill="white"/>
</mask>
<g mask="url(#mask0_1_51)">
<path d="M291.695 108.124C278.685 110.52 276.747 112.457 274.351 125.468C271.955 112.457 270.013 110.52 257.008 108.124C270.013 105.728 271.955 103.791 274.351 90.7802C276.747 103.791 278.685 105.728 291.695 108.124Z" fill="black" fill-opacity="0.61"/>
</g>
</svg>
